<?xml version="1.0" encoding="iso-8859-1"?>
<!-- Generator: Adobe Illustrator 19.0.0, SVG Export Plug-In . SVG Version: 6.00 Build 0)  -->
<svg version="1.1" id="Layer_1" xmlns="http://www.w3.org/2000/svg" xmlns:xlink="http://www.w3.org/1999/xlink" x="0px" y="0px"
	 viewBox="0 0 512 512" style="enable-background:new 0 0 512 512;" xml:space="preserve">
<circle style="fill:#FD8469;" cx="256" cy="256" r="256"/>
<path style="fill:#FC6F58;" d="M512,256c0-4.561-0.124-9.094-0.36-13.596L405.278,136.042L198.251,271.515l-90.388,72.825
	l166.969,166.969C407.423,501.667,512,391.051,512,256z"/>
<rect x="210.23" y="326.163" style="fill:#2B3B4E;" width="91.539" height="61.026"/>
<rect x="254.845" y="326.163" style="fill:#1D2A38;" width="46.925" height="61.026"/>
<path style="fill:#324A5E;" d="M397.626,346.505h-283.25c-6.042,0-10.942-4.899-10.942-10.942V143.855
	c0-6.042,4.899-10.942,10.942-10.942h283.248c6.042,0,10.942,4.899,10.942,10.942v191.709
	C408.567,341.606,403.668,346.505,397.626,346.505z"/>
<path style="fill:#2B3B4E;" d="M397.626,132.913H254.852v213.592h142.774c6.042,0,10.942-4.899,10.942-10.942V143.855
	C408.567,137.811,403.668,132.913,397.626,132.913z"/>
<rect x="116.381" y="145.394" style="fill:#FFFFFF;" width="279.238" height="188.63"/>
<rect x="254.845" y="145.394" style="fill:#E6F3FF;" width="140.774" height="188.63"/>
<rect x="194.974" y="377.018" style="fill:#324A5E;" width="122.053" height="30.513"/>
<rect x="254.845" y="377.018" style="fill:#2B3B4E;" width="62.181" height="30.513"/>
<circle style="fill:#FFD15D;" cx="256" cy="210.851" r="31.863"/>
<g>
	<path style="fill:#F9B54C;" d="M256.002,178.981c-0.388,0-0.764,0.045-1.148,0.059v63.609c0.384,0.014,0.76,0.059,1.148,0.059
		c17.598,0,31.863-14.265,31.863-31.863C287.863,193.246,273.598,178.981,256.002,178.981z"/>
	<path style="fill:#F9B54C;" d="M198.251,305.436c0-31.896,25.855-57.751,57.751-57.751s57.751,25.855,57.751,57.751H198.251z"/>
</g>
<path style="fill:#F4A200;" d="M256.002,247.686c-0.384,0-0.765,0.021-1.148,0.029v57.722h58.899
	C313.753,273.541,287.896,247.686,256.002,247.686z"/>
<g>
</g>
<g>
</g>
<g>
</g>
<g>
</g>
<g>
</g>
<g>
</g>
<g>
</g>
<g>
</g>
<g>
</g>
<g>
</g>
<g>
</g>
<g>
</g>
<g>
</g>
<g>
</g>
<g>
</g>
</svg>
